<svg xmlns="http://www.w3.org/2000/svg" width="1200" height="800" viewBox="0 0 1200 800">
  <defs>
    <linearGradient id="bg" x1="0" x2="1" y1="0" y2="1">
      <stop offset="0%" stop-color="#111827"/>
      <stop offset="50%" stop-color="#9a3412"/>
      <stop offset="100%" stop-color="#fb923c"/>
    </linearGradient>
  </defs>
  <rect width="1200" height="800" rx="40" fill="url(#bg)"/>
  <rect x="80" y="90" width="1040" height="620" rx="38" fill="#ffffff10" stroke="#ffffff1f"/>
  <text x="120" y="180" fill="#fff" font-size="40" font-family="Arial, sans-serif" font-weight="700">Operational Payment Flows</text>
  <text x="120" y="224" fill="#ffedd5" font-size="24" font-family="Arial, sans-serif">Built for store staff, field teams, and enterprise collections</text>
  <rect x="120" y="286" width="286" height="320" rx="28" fill="#ffffff12" stroke="#ffffff1c"/>
  <text x="148" y="338" fill="#fff" font-size="24" font-family="Arial, sans-serif" font-weight="700">Store Counter</text>
  <rect x="148" y="372" width="230" height="18" rx="9" fill="#fdba74"/>
  <rect x="148" y="408" width="180" height="18" rx="9" fill="#ffedd5"/>
  <rect x="148" y="444" width="200" height="18" rx="9" fill="#ffedd5"/>
  <rect x="456" y="286" width="286" height="320" rx="28" fill="#ffffff12" stroke="#ffffff1c"/>
  <text x="484" y="338" fill="#fff" font-size="24" font-family="Arial, sans-serif" font-weight="700">Delivery Agent</text>
  <rect x="484" y="372" width="230" height="18" rx="9" fill="#fdba74"/>
  <rect x="484" y="408" width="190" height="18" rx="9" fill="#ffedd5"/>
  <rect x="484" y="444" width="210" height="18" rx="9" fill="#ffedd5"/>
  <rect x="792" y="286" width="286" height="320" rx="28" fill="#ffffff12" stroke="#ffffff1c"/>
  <text x="820" y="338" fill="#fff" font-size="24" font-family="Arial, sans-serif" font-weight="700">POS Device</text>
  <rect x="820" y="372" width="230" height="18" rx="9" fill="#fdba74"/>
  <rect x="820" y="408" width="170" height="18" rx="9" fill="#ffedd5"/>
  <rect x="820" y="444" width="198" height="18" rx="9" fill="#ffedd5"/>
  <text x="120" y="666" fill="#fff7ed" font-size="22" font-family="Arial, sans-serif">Configurable Android-native payment journeys across merchant operations</text>
</svg>
