<svg xmlns="http://www.w3.org/2000/svg" width="1200" height="800" viewBox="0 0 1200 800">
  <defs>
    <linearGradient id="bg" x1="0" x2="1" y1="0" y2="1">
      <stop offset="0%" stop-color="#1f2937"/>
      <stop offset="52%" stop-color="#7c2d12"/>
      <stop offset="100%" stop-color="#f97316"/>
    </linearGradient>
    <linearGradient id="card" x1="0" x2="1" y1="0" y2="1">
      <stop offset="0%" stop-color="#ffffff20"/>
      <stop offset="100%" stop-color="#ffffff08"/>
    </linearGradient>
  </defs>
  <rect width="1200" height="800" rx="40" fill="url(#bg)"/>
  <circle cx="1030" cy="140" r="120" fill="#ffffff18"/>
  <circle cx="170" cy="660" r="170" fill="#ffffff12"/>
  <rect x="88" y="102" width="1024" height="596" rx="36" fill="#ffffff10" stroke="#ffffff20"/>
  <text x="126" y="198" fill="#fff" font-size="42" font-family="Arial, sans-serif" font-weight="700">Razorpay POS Service</text>
  <text x="126" y="245" fill="#fed7aa" font-size="24" font-family="Arial, sans-serif">Android-native merchant payment orchestration</text>
  <rect x="126" y="300" width="390" height="250" rx="28" fill="url(#card)" stroke="#ffffff1f"/>
  <text x="156" y="356" fill="#fff" font-size="24" font-family="Arial, sans-serif" font-weight="700">Modes Supported</text>
  <text x="156" y="404" fill="#ffedd5" font-size="20" font-family="Arial, sans-serif">Card, UPI, QR, SMS Pay Link</text>
  <text x="156" y="438" fill="#ffedd5" font-size="20" font-family="Arial, sans-serif">EMI, wallet, cash, cheque</text>
  <text x="156" y="496" fill="#fff" font-size="22" font-family="Arial, sans-serif" font-weight="700">Connectivity</text>
  <text x="156" y="534" fill="#ffedd5" font-size="20" font-family="Arial, sans-serif">Bluetooth and Wi-Fi hardware pairing</text>
  <rect x="606" y="250" width="222" height="410" rx="34" fill="#111827" stroke="#fdba74"/>
  <rect x="626" y="286" width="182" height="334" rx="24" fill="#fff7ed"/>
  <rect x="648" y="322" width="138" height="50" rx="18" fill="#fb923c"/>
  <rect x="648" y="392" width="138" height="26" rx="13" fill="#fed7aa"/>
  <rect x="648" y="434" width="138" height="26" rx="13" fill="#fed7aa"/>
  <rect x="648" y="476" width="138" height="26" rx="13" fill="#fed7aa"/>
  <rect x="862" y="304" width="186" height="126" rx="26" fill="#ffffff12" stroke="#ffffff20"/>
  <text x="892" y="352" fill="#fff" font-size="22" font-family="Arial, sans-serif" font-weight="700">Merchant App</text>
  <text x="892" y="388" fill="#ffedd5" font-size="18" font-family="Arial, sans-serif">Integrated payments</text>
  <rect x="862" y="460" width="186" height="126" rx="26" fill="#ffffff12" stroke="#ffffff20"/>
  <text x="892" y="508" fill="#fff" font-size="22" font-family="Arial, sans-serif" font-weight="700">POS Hardware</text>
  <text x="892" y="544" fill="#ffedd5" font-size="18" font-family="Arial, sans-serif">Fast pairing and processing</text>
</svg>
