<svg xmlns="http://www.w3.org/2000/svg" width="1200" height="800" viewBox="0 0 1200 800">
  <defs>
    <linearGradient id="bg" x1="0" x2="1" y1="0" y2="1">
      <stop offset="0%" stop-color="#082f49"/>
      <stop offset="52%" stop-color="#1d4ed8"/>
      <stop offset="100%" stop-color="#312e81"/>
    </linearGradient>
  </defs>
  <rect width="1200" height="800" rx="40" fill="url(#bg)"/>
  <rect x="88" y="96" width="1024" height="608" rx="38" fill="#ffffff10" stroke="#ffffff22"/>
  <text x="126" y="186" fill="#ffffff" font-size="42" font-family="Arial, sans-serif" font-weight="700">Razorpay Turbo</text>
  <text x="126" y="232" fill="#dbeafe" font-size="24" font-family="Arial, sans-serif">Flutter payments SDK bridging native checkout into one plugin layer</text>
  <rect x="126" y="292" width="394" height="286" rx="28" fill="#ffffff12" stroke="#ffffff1d"/>
  <text x="156" y="344" fill="#ffffff" font-size="24" font-family="Arial, sans-serif" font-weight="700">SDK Foundations</text>
  <text x="156" y="390" fill="#dbeafe" font-size="20" font-family="Arial, sans-serif">Flutter plugin and platform bridge</text>
  <text x="156" y="424" fill="#dbeafe" font-size="20" font-family="Arial, sans-serif">Android, iOS, and web support</text>
  <text x="156" y="458" fill="#dbeafe" font-size="20" font-family="Arial, sans-serif">Developer-focused integration API</text>
  <rect x="604" y="246" width="220" height="418" rx="34" fill="#0f172a" stroke="#93c5fd"/>
  <rect x="624" y="278" width="180" height="352" rx="24" fill="#eff6ff"/>
  <rect x="652" y="320" width="124" height="44" rx="18" fill="#2563eb"/>
  <rect x="652" y="388" width="124" height="20" rx="10" fill="#bfdbfe"/>
  <rect x="652" y="426" width="124" height="20" rx="10" fill="#bfdbfe"/>
  <rect x="652" y="464" width="124" height="20" rx="10" fill="#bfdbfe"/>
  <rect x="876" y="320" width="176" height="118" rx="24" fill="#ffffff12" stroke="#ffffff20"/>
  <text x="904" y="366" fill="#ffffff" font-size="22" font-family="Arial, sans-serif" font-weight="700">Native SDKs</text>
  <text x="904" y="402" fill="#dbeafe" font-size="18" font-family="Arial, sans-serif">Wrapped cleanly</text>
  <rect x="876" y="470" width="176" height="118" rx="24" fill="#ffffff12" stroke="#ffffff20"/>
  <text x="904" y="516" fill="#ffffff" font-size="22" font-family="Arial, sans-serif" font-weight="700">DX Focus</text>
  <text x="904" y="552" fill="#dbeafe" font-size="18" font-family="Arial, sans-serif">Simple checkout setup</text>
</svg>
