<svg xmlns="http://www.w3.org/2000/svg" width="1200" height="800" viewBox="0 0 1200 800">
  <defs>
    <linearGradient id="bg" x1="0" x2="1" y1="0" y2="1">
      <stop offset="0%" stop-color="#0f172a"/>
      <stop offset="50%" stop-color="#991b1b"/>
      <stop offset="100%" stop-color="#f97316"/>
    </linearGradient>
  </defs>
  <rect width="1200" height="800" rx="40" fill="url(#bg)"/>
  <circle cx="180" cy="154" r="112" fill="#ffffff10"/>
  <circle cx="1014" cy="646" r="150" fill="#ffffff0d"/>
  <rect x="84" y="100" width="1032" height="600" rx="36" fill="#ffffff10" stroke="#ffffff1f"/>
  <text x="124" y="186" fill="#ffffff" font-size="40" font-family="Arial, sans-serif" font-weight="700">Threat Visibility</text>
  <text x="124" y="230" fill="#ffedd5" font-size="24" font-family="Arial, sans-serif">Risk scoring across device, network, and privacy posture</text>
  <rect x="124" y="292" width="286" height="316" rx="28" fill="#ffffff12" stroke="#ffffff1c"/>
  <text x="152" y="344" fill="#ffffff" font-size="24" font-family="Arial, sans-serif" font-weight="700">Device</text>
  <rect x="152" y="378" width="204" height="18" rx="9" fill="#fdba74"/>
  <rect x="152" y="414" width="226" height="18" rx="9" fill="#ffedd5"/>
  <rect x="152" y="450" width="176" height="18" rx="9" fill="#ffedd5"/>
  <rect x="456" y="292" width="286" height="316" rx="28" fill="#ffffff12" stroke="#ffffff1c"/>
  <text x="484" y="344" fill="#ffffff" font-size="24" font-family="Arial, sans-serif" font-weight="700">Network</text>
  <rect x="484" y="378" width="204" height="18" rx="9" fill="#fdba74"/>
  <rect x="484" y="414" width="214" height="18" rx="9" fill="#ffedd5"/>
  <rect x="484" y="450" width="178" height="18" rx="9" fill="#ffedd5"/>
  <rect x="788" y="292" width="286" height="316" rx="28" fill="#ffffff12" stroke="#ffffff1c"/>
  <text x="816" y="344" fill="#ffffff" font-size="24" font-family="Arial, sans-serif" font-weight="700">Privacy</text>
  <rect x="816" y="378" width="204" height="18" rx="9" fill="#fdba74"/>
  <rect x="816" y="414" width="214" height="18" rx="9" fill="#ffedd5"/>
  <rect x="816" y="450" width="172" height="18" rx="9" fill="#ffedd5"/>
  <text x="124" y="656" fill="#fff7ed" font-size="22" font-family="Arial, sans-serif">Designed to turn cybersecurity diagnostics into understandable user actions</text>
</svg>
