<svg xmlns="http://www.w3.org/2000/svg" width="1200" height="800" viewBox="0 0 1200 800">
  <defs>
    <linearGradient id="bg" x1="0" x2="1" y1="0" y2="1">
      <stop offset="0%" stop-color="#111827"/>
      <stop offset="55%" stop-color="#b91c1c"/>
      <stop offset="100%" stop-color="#fb923c"/>
    </linearGradient>
  </defs>
  <rect width="1200" height="800" rx="40" fill="url(#bg)"/>
  <rect x="92" y="102" width="1016" height="596" rx="34" fill="#ffffff10" stroke="#ffffff1f"/>
  <text x="128" y="190" fill="#ffffff" font-size="40" font-family="Arial, sans-serif" font-weight="700">Protection Workflow</text>
  <text x="128" y="234" fill="#ffedd5" font-size="24" font-family="Arial, sans-serif">Assess, detect, guide, and secure across evolving mobile threats</text>
  <path d="M160 522 C258 466 344 376 442 394 C540 412 620 308 720 330 C820 352 906 482 1030 398" fill="none" stroke="#fdba74" stroke-width="16" stroke-linecap="round"/>
  <circle cx="160" cy="522" r="18" fill="#fff7ed"/>
  <circle cx="442" cy="394" r="18" fill="#fff7ed"/>
  <circle cx="720" cy="330" r="18" fill="#fff7ed"/>
  <circle cx="1030" cy="398" r="18" fill="#fff7ed"/>
  <rect x="126" y="572" width="252" height="88" rx="22" fill="#ffffff12" stroke="#ffffff1c"/>
  <text x="162" y="624" fill="#ffffff" font-size="24" font-family="Arial, sans-serif" font-weight="700">Threat Scan</text>
  <rect x="474" y="572" width="252" height="88" rx="22" fill="#ffffff12" stroke="#ffffff1c"/>
  <text x="512" y="624" fill="#ffffff" font-size="24" font-family="Arial, sans-serif" font-weight="700">Risk Score</text>
  <rect x="822" y="572" width="252" height="88" rx="22" fill="#ffffff12" stroke="#ffffff1c"/>
  <text x="852" y="624" fill="#ffffff" font-size="24" font-family="Arial, sans-serif" font-weight="700">Safe Action</text>
</svg>
