<svg xmlns="http://www.w3.org/2000/svg" width="1200" height="800" viewBox="0 0 1200 800">
  <defs>
    <linearGradient id="bg" x1="0" x2="1" y1="0" y2="1">
      <stop offset="0%" stop-color="#172554"/>
      <stop offset="50%" stop-color="#1d4ed8"/>
      <stop offset="100%" stop-color="#0369a1"/>
    </linearGradient>
  </defs>
  <rect width="1200" height="800" rx="40" fill="url(#bg)"/>
  <circle cx="176" cy="160" r="112" fill="#ffffff10"/>
  <circle cx="1022" cy="644" r="154" fill="#ffffff0d"/>
  <rect x="84" y="100" width="1032" height="600" rx="36" fill="#ffffff10" stroke="#ffffff1f"/>
  <text x="124" y="186" fill="#ffffff" font-size="40" font-family="Arial, sans-serif" font-weight="700">Event-Driven Payment Flow</text>
  <text x="124" y="230" fill="#dbeafe" font-size="24" font-family="Arial, sans-serif">Success, failure, and wallet callbacks across Flutter apps</text>
  <rect x="124" y="292" width="286" height="316" rx="28" fill="#ffffff12" stroke="#ffffff1c"/>
  <text x="152" y="344" fill="#ffffff" font-size="24" font-family="Arial, sans-serif" font-weight="700">Order Create</text>
  <rect x="152" y="378" width="204" height="18" rx="9" fill="#93c5fd"/>
  <rect x="152" y="414" width="226" height="18" rx="9" fill="#dbeafe"/>
  <rect x="152" y="450" width="174" height="18" rx="9" fill="#dbeafe"/>
  <rect x="456" y="292" width="286" height="316" rx="28" fill="#ffffff12" stroke="#ffffff1c"/>
  <text x="484" y="344" fill="#ffffff" font-size="24" font-family="Arial, sans-serif" font-weight="700">Checkout Open</text>
  <rect x="484" y="378" width="204" height="18" rx="9" fill="#93c5fd"/>
  <rect x="484" y="414" width="214" height="18" rx="9" fill="#dbeafe"/>
  <rect x="484" y="450" width="180" height="18" rx="9" fill="#dbeafe"/>
  <rect x="788" y="292" width="286" height="316" rx="28" fill="#ffffff12" stroke="#ffffff1c"/>
  <text x="816" y="344" fill="#ffffff" font-size="24" font-family="Arial, sans-serif" font-weight="700">Callback Handle</text>
  <rect x="816" y="378" width="204" height="18" rx="9" fill="#93c5fd"/>
  <rect x="816" y="414" width="214" height="18" rx="9" fill="#dbeafe"/>
  <rect x="816" y="450" width="176" height="18" rx="9" fill="#dbeafe"/>
  <text x="124" y="656" fill="#e0f2fe" font-size="22" font-family="Arial, sans-serif">One Flutter-facing surface over platform-native Razorpay checkout systems</text>
</svg>
