<svg xmlns="http://www.w3.org/2000/svg" width="1200" height="800" viewBox="0 0 1200 800">
  <defs>
    <linearGradient id="bg" x1="0" x2="1" y1="0" y2="1">
      <stop offset="0%" stop-color="#082f49"/>
      <stop offset="55%" stop-color="#2563eb"/>
      <stop offset="100%" stop-color="#312e81"/>
    </linearGradient>
  </defs>
  <rect width="1200" height="800" rx="40" fill="url(#bg)"/>
  <rect x="92" y="102" width="1016" height="596" rx="34" fill="#ffffff10" stroke="#ffffff1f"/>
  <text x="128" y="190" fill="#ffffff" font-size="40" font-family="Arial, sans-serif" font-weight="700">Checkout Customization</text>
  <text x="128" y="234" fill="#dbeafe" font-size="24" font-family="Arial, sans-serif">Prefill, branding, payment methods, and timeout control</text>
  <path d="M158 520 C260 458 342 376 440 396 C538 416 616 310 718 330 C820 350 904 480 1032 392" fill="none" stroke="#93c5fd" stroke-width="16" stroke-linecap="round"/>
  <circle cx="158" cy="520" r="18" fill="#eff6ff"/>
  <circle cx="440" cy="396" r="18" fill="#eff6ff"/>
  <circle cx="718" cy="330" r="18" fill="#eff6ff"/>
  <circle cx="1032" cy="392" r="18" fill="#eff6ff"/>
  <rect x="126" y="572" width="252" height="88" rx="22" fill="#ffffff12" stroke="#ffffff1c"/>
  <text x="162" y="624" fill="#ffffff" font-size="24" font-family="Arial, sans-serif" font-weight="700">Brand Control</text>
  <rect x="474" y="572" width="252" height="88" rx="22" fill="#ffffff12" stroke="#ffffff1c"/>
  <text x="510" y="624" fill="#ffffff" font-size="24" font-family="Arial, sans-serif" font-weight="700">Method Config</text>
  <rect x="822" y="572" width="252" height="88" rx="22" fill="#ffffff12" stroke="#ffffff1c"/>
  <text x="860" y="624" fill="#ffffff" font-size="24" font-family="Arial, sans-serif" font-weight="700">Secure Orders</text>
</svg>
