<svg xmlns="http://www.w3.org/2000/svg" width="1200" height="800" viewBox="0 0 1200 800">
  <defs>
    <linearGradient id="bg" x1="0" x2="1" y1="0" y2="1">
      <stop offset="0%" stop-color="#052e16"/>
      <stop offset="50%" stop-color="#14532d"/>
      <stop offset="100%" stop-color="#0f766e"/>
    </linearGradient>
  </defs>
  <rect width="1200" height="800" rx="40" fill="url(#bg)"/>
  <rect x="82" y="92" width="1036" height="616" rx="38" fill="#ffffff10" stroke="#ffffff1f"/>
  <text x="122" y="182" fill="#fff" font-size="42" font-family="Arial, sans-serif" font-weight="700">AiDash IVMS FieldPro</text>
  <text x="122" y="228" fill="#ccfbf1" font-size="24" font-family="Arial, sans-serif">Field-ready vegetation risk workflows for utility crews</text>
  <rect x="122" y="288" width="404" height="322" rx="30" fill="#ffffff12" stroke="#ffffff20"/>
  <text x="154" y="338" fill="#fff" font-size="24" font-family="Arial, sans-serif" font-weight="700">Field Tasks</text>
  <text x="154" y="388" fill="#d1fae5" font-size="20" font-family="Arial, sans-serif">Risk reporting</text>
  <text x="154" y="424" fill="#d1fae5" font-size="20" font-family="Arial, sans-serif">Tree trimming workflows</text>
  <text x="154" y="460" fill="#d1fae5" font-size="20" font-family="Arial, sans-serif">Hazard tree management</text>
  <text x="154" y="496" fill="#d1fae5" font-size="20" font-family="Arial, sans-serif">Remote crew coordination</text>
  <rect x="612" y="242" width="240" height="426" rx="36" fill="#0f172a" stroke="#99f6e4"/>
  <rect x="634" y="278" width="196" height="352" rx="24" fill="#ecfeff"/>
  <path d="M664 454 L708 394 L748 430 L800 344" fill="none" stroke="#14b8a6" stroke-width="10" stroke-linecap="round" stroke-linejoin="round"/>
  <rect x="884" y="304" width="174" height="126" rx="26" fill="#ffffff12" stroke="#ffffff1f"/>
  <text x="910" y="352" fill="#fff" font-size="22" font-family="Arial, sans-serif" font-weight="700">Offline Maps</text>
  <text x="910" y="388" fill="#d1fae5" font-size="18" font-family="Arial, sans-serif">Work beyond coverage</text>
  <rect x="884" y="462" width="174" height="126" rx="26" fill="#ffffff12" stroke="#ffffff1f"/>
  <text x="910" y="510" fill="#fff" font-size="22" font-family="Arial, sans-serif" font-weight="700">Decision Support</text>
  <text x="910" y="546" fill="#d1fae5" font-size="18" font-family="Arial, sans-serif">Map layers and detail views</text>
</svg>
