<svg xmlns="http://www.w3.org/2000/svg" width="1200" height="800" viewBox="0 0 1200 800">
  <defs>
    <linearGradient id="bg" x1="0" x2="1" y1="0" y2="1">
      <stop offset="0%" stop-color="#831843"/>
      <stop offset="55%" stop-color="#db2777"/>
      <stop offset="100%" stop-color="#fb7185"/>
    </linearGradient>
  </defs>
  <rect width="1200" height="800" rx="40" fill="url(#bg)"/>
  <rect x="92" y="102" width="1016" height="596" rx="34" fill="#ffffff10" stroke="#ffffff1f"/>
  <text x="128" y="190" fill="#ffffff" font-size="40" font-family="Arial, sans-serif" font-weight="700">AI Baby Insights</text>
  <text x="128" y="234" fill="#fdf2f8" font-size="24" font-family="Arial, sans-serif">Translating signals, symptoms, and routines into confident care actions</text>
  <path d="M164 514 C250 390 336 356 434 392 C532 428 634 300 724 330 C814 360 906 506 1016 430" fill="none" stroke="#f9a8d4" stroke-width="16" stroke-linecap="round"/>
  <circle cx="164" cy="514" r="18" fill="#fff1f2"/>
  <circle cx="434" cy="392" r="18" fill="#fff1f2"/>
  <circle cx="724" cy="330" r="18" fill="#fff1f2"/>
  <circle cx="1016" cy="430" r="18" fill="#fff1f2"/>
  <rect x="126" y="572" width="252" height="88" rx="22" fill="#ffffff12" stroke="#ffffff1c"/>
  <text x="156" y="624" fill="#ffffff" font-size="24" font-family="Arial, sans-serif" font-weight="700">Cry Analysis</text>
  <rect x="474" y="572" width="252" height="88" rx="22" fill="#ffffff12" stroke="#ffffff1c"/>
  <text x="504" y="624" fill="#ffffff" font-size="24" font-family="Arial, sans-serif" font-weight="700">Routine Support</text>
  <rect x="822" y="572" width="252" height="88" rx="22" fill="#ffffff12" stroke="#ffffff1c"/>
  <text x="852" y="624" fill="#ffffff" font-size="24" font-family="Arial, sans-serif" font-weight="700">Expert Guidance</text>
</svg>
