<svg xmlns="http://www.w3.org/2000/svg" width="1200" height="800" viewBox="0 0 1200 800">
  <defs>
    <linearGradient id="bg" x1="0" x2="1" y1="0" y2="1">
      <stop offset="0%" stop-color="#052e16"/>
      <stop offset="55%" stop-color="#0f766e"/>
      <stop offset="100%" stop-color="#0f172a"/>
    </linearGradient>
  </defs>
  <rect width="1200" height="800" rx="40" fill="url(#bg)"/>
  <rect x="88" y="96" width="1024" height="608" rx="38" fill="#ffffff10" stroke="#ffffff22"/>
  <text x="126" y="186" fill="#ffffff" font-size="42" font-family="Arial, sans-serif" font-weight="700">Razorpay DigiPOS</text>
  <text x="126" y="232" fill="#ccfbf1" font-size="24" font-family="Arial, sans-serif">Premium in-store checkout for Apple retail journeys</text>
  <rect x="126" y="294" width="388" height="286" rx="28" fill="#ffffff12" stroke="#ffffff1d"/>
  <text x="156" y="346" fill="#ffffff" font-size="24" font-family="Arial, sans-serif" font-weight="700">Checkout Stack</text>
  <text x="156" y="392" fill="#d1fae5" font-size="20" font-family="Arial, sans-serif">Card, UPI, Payment Links</text>
  <text x="156" y="426" fill="#d1fae5" font-size="20" font-family="Arial, sans-serif">Dynamic QR, No-Cost EMI</text>
  <text x="156" y="460" fill="#d1fae5" font-size="20" font-family="Arial, sans-serif">AppleCare and trade-in flows</text>
  <rect x="604" y="244" width="224" height="420" rx="34" fill="#020617" stroke="#99f6e4"/>
  <rect x="624" y="278" width="184" height="352" rx="24" fill="#ecfeff"/>
  <rect x="648" y="320" width="136" height="48" rx="18" fill="#0f766e"/>
  <rect x="648" y="390" width="136" height="22" rx="11" fill="#99f6e4"/>
  <rect x="648" y="430" width="136" height="22" rx="11" fill="#99f6e4"/>
  <rect x="648" y="470" width="136" height="22" rx="11" fill="#99f6e4"/>
  <rect x="876" y="318" width="176" height="118" rx="24" fill="#ffffff12" stroke="#ffffff20"/>
  <text x="904" y="366" fill="#ffffff" font-size="22" font-family="Arial, sans-serif" font-weight="700">Staff Mobility</text>
  <text x="904" y="402" fill="#d1fae5" font-size="18" font-family="Arial, sans-serif">Checkout anywhere</text>
  <rect x="876" y="468" width="176" height="118" rx="24" fill="#ffffff12" stroke="#ffffff20"/>
  <text x="904" y="516" fill="#ffffff" font-size="22" font-family="Arial, sans-serif" font-weight="700">10x GMV</text>
  <text x="904" y="552" fill="#d1fae5" font-size="18" font-family="Arial, sans-serif">Growth-driven UX</text>
</svg>
