<svg xmlns="http://www.w3.org/2000/svg" width="1200" height="800" viewBox="0 0 1200 800">
  <defs>
    <linearGradient id="bg" x1="0" x2="1" y1="0" y2="1">
      <stop offset="0%" stop-color="#0f172a"/>
      <stop offset="55%" stop-color="#164e63"/>
      <stop offset="100%" stop-color="#0f766e"/>
    </linearGradient>
  </defs>
  <rect width="1200" height="800" rx="40" fill="url(#bg)"/>
  <rect x="90" y="102" width="1020" height="596" rx="34" fill="#ffffff10" stroke="#ffffff1f"/>
  <text x="126" y="190" fill="#ffffff" font-size="40" font-family="Arial, sans-serif" font-weight="700">Transaction Throughput</text>
  <text x="126" y="234" fill="#a5f3fc" font-size="24" font-family="Arial, sans-serif">Fast, conversion-friendly retail payments on iPhone and iPad</text>
  <path d="M152 540 C262 492 332 402 430 424 C528 446 618 292 728 312 C838 332 920 462 1040 370" fill="none" stroke="#67e8f9" stroke-width="16" stroke-linecap="round"/>
  <circle cx="152" cy="540" r="18" fill="#ecfeff"/>
  <circle cx="430" cy="424" r="18" fill="#ecfeff"/>
  <circle cx="728" cy="312" r="18" fill="#ecfeff"/>
  <circle cx="1040" cy="370" r="18" fill="#ecfeff"/>
  <rect x="126" y="572" width="252" height="88" rx="22" fill="#ffffff12" stroke="#ffffff1c"/>
  <text x="154" y="624" fill="#ffffff" font-size="24" font-family="Arial, sans-serif" font-weight="700">Reliable Flows</text>
  <rect x="474" y="572" width="252" height="88" rx="22" fill="#ffffff12" stroke="#ffffff1c"/>
  <text x="510" y="624" fill="#ffffff" font-size="24" font-family="Arial, sans-serif" font-weight="700">POS Integrations</text>
  <rect x="822" y="572" width="252" height="88" rx="22" fill="#ffffff12" stroke="#ffffff1c"/>
  <text x="860" y="624" fill="#ffffff" font-size="24" font-family="Arial, sans-serif" font-weight="700">Retail UX</text>
</svg>
