<svg xmlns="http://www.w3.org/2000/svg" width="1200" height="800" viewBox="0 0 1200 800">
  <defs>
    <linearGradient id="bg" x1="0" x2="1" y1="0" y2="1">
      <stop offset="0%" stop-color="#022c22"/>
      <stop offset="50%" stop-color="#155e75"/>
      <stop offset="100%" stop-color="#0f172a"/>
    </linearGradient>
  </defs>
  <rect width="1200" height="800" rx="40" fill="url(#bg)"/>
  <circle cx="180" cy="160" r="120" fill="#ffffff10"/>
  <circle cx="1020" cy="632" r="160" fill="#ffffff0d"/>
  <rect x="86" y="102" width="1028" height="596" rx="36" fill="#ffffff10" stroke="#ffffff1f"/>
  <text x="126" y="188" fill="#ffffff" font-size="40" font-family="Arial, sans-serif" font-weight="700">Modern Store Journeys</text>
  <text x="126" y="232" fill="#bae6fd" font-size="24" font-family="Arial, sans-serif">Payment, EMI, exchange, and trade-in from a single iOS app</text>
  <rect x="126" y="294" width="286" height="312" rx="28" fill="#ffffff12" stroke="#ffffff1c"/>
  <text x="154" y="346" fill="#ffffff" font-size="24" font-family="Arial, sans-serif" font-weight="700">Browse &amp; Bill</text>
  <rect x="154" y="378" width="198" height="18" rx="9" fill="#67e8f9"/>
  <rect x="154" y="414" width="224" height="18" rx="9" fill="#cffafe"/>
  <rect x="154" y="450" width="182" height="18" rx="9" fill="#cffafe"/>
  <rect x="456" y="294" width="286" height="312" rx="28" fill="#ffffff12" stroke="#ffffff1c"/>
  <text x="484" y="346" fill="#ffffff" font-size="24" font-family="Arial, sans-serif" font-weight="700">Finance Options</text>
  <rect x="484" y="378" width="198" height="18" rx="9" fill="#67e8f9"/>
  <rect x="484" y="414" width="210" height="18" rx="9" fill="#cffafe"/>
  <rect x="484" y="450" width="172" height="18" rx="9" fill="#cffafe"/>
  <rect x="786" y="294" width="286" height="312" rx="28" fill="#ffffff12" stroke="#ffffff1c"/>
  <text x="814" y="346" fill="#ffffff" font-size="24" font-family="Arial, sans-serif" font-weight="700">Instant Close</text>
  <rect x="814" y="378" width="198" height="18" rx="9" fill="#67e8f9"/>
  <rect x="814" y="414" width="220" height="18" rx="9" fill="#cffafe"/>
  <rect x="814" y="450" width="184" height="18" rx="9" fill="#cffafe"/>
  <text x="126" y="654" fill="#e0f2fe" font-size="22" font-family="Arial, sans-serif">Built for Apple Premium Reseller counters with high-reliability payment execution</text>
</svg>
