<svg xmlns="http://www.w3.org/2000/svg" width="1200" height="800" viewBox="0 0 1200 800">
  <defs>
    <linearGradient id="bg" x1="0" x2="1" y1="0" y2="1">
      <stop offset="0%" stop-color="#052e16"/>
      <stop offset="55%" stop-color="#0f766e"/>
      <stop offset="100%" stop-color="#164e63"/>
    </linearGradient>
  </defs>
  <rect width="1200" height="800" rx="40" fill="url(#bg)"/>
  <rect x="92" y="102" width="1016" height="596" rx="34" fill="#ffffff10" stroke="#ffffff20"/>
  <text x="128" y="190" fill="#fff" font-size="40" font-family="Arial, sans-serif" font-weight="700">Hazard Tree Operations</text>
  <text x="128" y="234" fill="#ccfbf1" font-size="24" font-family="Arial, sans-serif">Structured execution for distributed utility teams</text>
  <path d="M170 540 C250 420 340 360 438 392 C536 424 612 332 706 344 C800 356 882 454 972 410" fill="none" stroke="#99f6e4" stroke-width="14" stroke-linecap="round"/>
  <circle cx="170" cy="540" r="18" fill="#ecfeff"/>
  <circle cx="438" cy="392" r="18" fill="#ecfeff"/>
  <circle cx="706" cy="344" r="18" fill="#ecfeff"/>
  <circle cx="972" cy="410" r="18" fill="#ecfeff"/>
  <rect x="126" y="564" width="252" height="88" rx="22" fill="#ffffff12" stroke="#ffffff1c"/>
  <text x="156" y="616" fill="#fff" font-size="24" font-family="Arial, sans-serif" font-weight="700">Risk Reporting</text>
  <rect x="474" y="564" width="252" height="88" rx="22" fill="#ffffff12" stroke="#ffffff1c"/>
  <text x="510" y="616" fill="#fff" font-size="24" font-family="Arial, sans-serif" font-weight="700">Crew Workflow</text>
  <rect x="822" y="564" width="252" height="88" rx="22" fill="#ffffff12" stroke="#ffffff1c"/>
  <text x="854" y="616" fill="#fff" font-size="24" font-family="Arial, sans-serif" font-weight="700">Map-Driven Actions</text>
</svg>
