<svg xmlns="http://www.w3.org/2000/svg" width="1200" height="800" viewBox="0 0 1200 800">
  <defs>
    <linearGradient id="bg" x1="0" x2="1" y1="0" y2="1">
      <stop offset="0%" stop-color="#0c0a09"/>
      <stop offset="55%" stop-color="#7c2d12"/>
      <stop offset="100%" stop-color="#ea580c"/>
    </linearGradient>
  </defs>
  <rect width="1200" height="800" rx="40" fill="url(#bg)"/>
  <circle cx="210" cy="160" r="120" fill="#ffffff0f"/>
  <circle cx="1010" cy="642" r="150" fill="#ffffff10"/>
  <rect x="92" y="104" width="1016" height="592" rx="34" fill="#ffffff10" stroke="#ffffff1f"/>
  <text x="128" y="190" fill="#fff" font-size="40" font-family="Arial, sans-serif" font-weight="700">Self-Healing POS Service</text>
  <text x="128" y="234" fill="#fdba74" font-size="24" font-family="Arial, sans-serif">Resilient transaction routing for merchant apps</text>
  <path d="M170 468 C290 330 416 330 532 468 S774 606 910 440" fill="none" stroke="#fb923c" stroke-width="18" stroke-linecap="round"/>
  <circle cx="170" cy="468" r="20" fill="#fff7ed"/>
  <circle cx="532" cy="468" r="20" fill="#fff7ed"/>
  <circle cx="910" cy="440" r="20" fill="#fff7ed"/>
  <rect x="126" y="546" width="250" height="92" rx="24" fill="#ffffff12" stroke="#ffffff1c"/>
  <text x="154" y="598" fill="#fff" font-size="24" font-family="Arial, sans-serif" font-weight="700">Failover Ready</text>
  <rect x="428" y="546" width="250" height="92" rx="24" fill="#ffffff12" stroke="#ffffff1c"/>
  <text x="458" y="598" fill="#fff" font-size="24" font-family="Arial, sans-serif" font-weight="700">Session Safe</text>
  <rect x="730" y="546" width="250" height="92" rx="24" fill="#ffffff12" stroke="#ffffff1c"/>
  <text x="760" y="598" fill="#fff" font-size="24" font-family="Arial, sans-serif" font-weight="700">Merchant First</text>
</svg>
