<svg xmlns="http://www.w3.org/2000/svg" width="1200" height="800" viewBox="0 0 1200 800">
  <defs>
    <linearGradient id="bg" x1="0" x2="1" y1="0" y2="1">
      <stop offset="0%" stop-color="#701a75"/>
      <stop offset="50%" stop-color="#ec4899"/>
      <stop offset="100%" stop-color="#fb7185"/>
    </linearGradient>
  </defs>
  <rect width="1200" height="800" rx="40" fill="url(#bg)"/>
  <circle cx="174" cy="154" r="110" fill="#ffffff10"/>
  <circle cx="1018" cy="646" r="152" fill="#ffffff0d"/>
  <rect x="84" y="100" width="1032" height="600" rx="36" fill="#ffffff10" stroke="#ffffff1f"/>
  <text x="124" y="186" fill="#ffffff" font-size="40" font-family="Arial, sans-serif" font-weight="700">Parenting Journey Support</text>
  <text x="124" y="230" fill="#fdf2f8" font-size="24" font-family="Arial, sans-serif">Sleep, feeding, milestones, and reassurance in one mobile experience</text>
  <rect x="124" y="292" width="286" height="316" rx="28" fill="#ffffff12" stroke="#ffffff1c"/>
  <text x="152" y="344" fill="#ffffff" font-size="24" font-family="Arial, sans-serif" font-weight="700">Daily Guidance</text>
  <rect x="152" y="378" width="202" height="18" rx="9" fill="#f9a8d4"/>
  <rect x="152" y="414" width="220" height="18" rx="9" fill="#fce7f3"/>
  <rect x="152" y="450" width="182" height="18" rx="9" fill="#fce7f3"/>
  <rect x="456" y="292" width="286" height="316" rx="28" fill="#ffffff12" stroke="#ffffff1c"/>
  <text x="484" y="344" fill="#ffffff" font-size="24" font-family="Arial, sans-serif" font-weight="700">Growth Tracking</text>
  <rect x="484" y="378" width="202" height="18" rx="9" fill="#f9a8d4"/>
  <rect x="484" y="414" width="210" height="18" rx="9" fill="#fce7f3"/>
  <rect x="484" y="450" width="186" height="18" rx="9" fill="#fce7f3"/>
  <rect x="788" y="292" width="286" height="316" rx="28" fill="#ffffff12" stroke="#ffffff1c"/>
  <text x="816" y="344" fill="#ffffff" font-size="24" font-family="Arial, sans-serif" font-weight="700">Expert Access</text>
  <rect x="816" y="378" width="202" height="18" rx="9" fill="#f9a8d4"/>
  <rect x="816" y="414" width="220" height="18" rx="9" fill="#fce7f3"/>
  <rect x="816" y="450" width="174" height="18" rx="9" fill="#fce7f3"/>
  <text x="124" y="656" fill="#fdf2f8" font-size="22" font-family="Arial, sans-serif">A more structured, emotionally reassuring product for first-time parents</text>
</svg>
