<svg xmlns="http://www.w3.org/2000/svg" width="1200" height="800" viewBox="0 0 1200 800">
  <defs>
    <linearGradient id="bg" x1="0" x2="1" y1="0" y2="1">
      <stop offset="0%" stop-color="#111827"/>
      <stop offset="50%" stop-color="#7f1d1d"/>
      <stop offset="100%" stop-color="#ea580c"/>
    </linearGradient>
  </defs>
  <rect width="1200" height="800" rx="40" fill="url(#bg)"/>
  <rect x="88" y="96" width="1024" height="608" rx="38" fill="#ffffff10" stroke="#ffffff22"/>
  <text x="126" y="186" fill="#ffffff" font-size="42" font-family="Arial, sans-serif" font-weight="700">WhiteHaX CyberSafe</text>
  <text x="126" y="232" fill="#ffedd5" font-size="24" font-family="Arial, sans-serif">Android-native cyber-readiness, privacy, and risk defense</text>
  <rect x="126" y="292" width="390" height="286" rx="28" fill="#ffffff12" stroke="#ffffff1d"/>
  <text x="156" y="344" fill="#ffffff" font-size="24" font-family="Arial, sans-serif" font-weight="700">Security Surface</text>
  <text x="156" y="390" fill="#ffedd5" font-size="20" font-family="Arial, sans-serif">Device posture and app settings</text>
  <text x="156" y="424" fill="#ffedd5" font-size="20" font-family="Arial, sans-serif">Privacy and phishing analysis</text>
  <text x="156" y="458" fill="#ffedd5" font-size="20" font-family="Arial, sans-serif">Network and threat intelligence</text>
  <rect x="606" y="244" width="220" height="422" rx="34" fill="#1f2937" stroke="#fdba74"/>
  <rect x="626" y="276" width="180" height="356" rx="24" fill="#fff7ed"/>
  <path d="M716 344 L770 372 L750 470 C741 500 724 525 716 530 C708 525 691 500 682 470 L662 372 Z" fill="#f97316"/>
  <rect x="654" y="486" width="124" height="20" rx="10" fill="#fdba74"/>
  <rect x="654" y="522" width="124" height="20" rx="10" fill="#fdba74"/>
  <rect x="876" y="320" width="176" height="118" rx="24" fill="#ffffff12" stroke="#ffffff20"/>
  <text x="904" y="366" fill="#ffffff" font-size="22" font-family="Arial, sans-serif" font-weight="700">Wi-Fi Check</text>
  <text x="904" y="402" fill="#ffedd5" font-size="18" font-family="Arial, sans-serif">On-demand security</text>
  <rect x="876" y="470" width="176" height="118" rx="24" fill="#ffffff12" stroke="#ffffff20"/>
  <text x="904" y="516" fill="#ffffff" font-size="22" font-family="Arial, sans-serif" font-weight="700">VPN Guard</text>
  <text x="904" y="552" fill="#ffedd5" font-size="18" font-family="Arial, sans-serif">Connected protection</text>
</svg>
